<svg xmlns="http://www.w3.org/2000/svg" viewBox="0 0 800 1000" preserveAspectRatio="xMidYMid slice"><defs><linearGradient id="wall" x1="0" x2="0" y1="0" y2="1"><stop offset="0" stop-color="#f5e5b5"/><stop offset="1" stop-color="#d9b97f"/></linearGradient></defs><rect width="800" height="1000" fill="url(#wall)"/><g fill="#fff6c7" opacity="0.7"><circle cx="120" cy="160" r="4"/><circle cx="220" cy="80" r="3"/><circle cx="340" cy="220" r="5"/><circle cx="500" cy="120" r="3"/><circle cx="640" cy="200" r="4"/><circle cx="760" cy="100" r="3"/><circle cx="80" cy="380" r="3"/><circle cx="300" cy="420" r="5"/><circle cx="580" cy="480" r="3"/><circle cx="720" cy="360" r="4"/><circle cx="180" cy="600" r="4"/><circle cx="420" cy="640" r="5"/><circle cx="660" cy="680" r="3"/><circle cx="120" cy="820" r="4"/><circle cx="340" cy="860" r="3"/><circle cx="560" cy="900" r="4"/><circle cx="720" cy="860" r="3"/></g><g stroke="#c8a24a" stroke-width="1" opacity="0.35"><line x1="0" y1="320" x2="800" y2="320"/><line x1="0" y1="640" x2="800" y2="640"/></g></svg>
