<svg xmlns="http://www.w3.org/2000/svg" viewBox="0 0 800 1000" preserveAspectRatio="xMidYMid slice"><defs><radialGradient id="spot" cx="0.5" cy="0.25" r="0.7"><stop offset="0" stop-color="#ffe66d" stop-opacity="0.85"/><stop offset="0.35" stop-color="#ff90c2" stop-opacity="0.45"/><stop offset="1" stop-color="#1a0e22" stop-opacity="1"/></radialGradient><linearGradient id="haze" x1="0" x2="0" y1="0" y2="1"><stop offset="0" stop-color="#5e2fa3" stop-opacity="0"/><stop offset="1" stop-color="#5e2fa3" stop-opacity="0.6"/></linearGradient></defs><rect width="800" height="1000" fill="#2a1a38"/><rect width="800" height="1000" fill="url(#spot)"/><!-- Spotlight beams --><g opacity="0.35"><polygon points="400,0 220,1000 580,1000" fill="#ffe66d"/><polygon points="400,0 120,1000 680,1000" fill="#ff90c2"/></g><!-- Stars --><g fill="#ffe66d"><circle cx="80" cy="80" r="2"/><circle cx="220" cy="40" r="3"/><circle cx="360" cy="90" r="2"/><circle cx="540" cy="50" r="3"/><circle cx="680" cy="80" r="2"/><circle cx="740" cy="140" r="3"/><circle cx="120" cy="180" r="2"/><circle cx="60" cy="300" r="2"/><circle cx="740" cy="280" r="2"/></g><!-- Crowd silhouette --><rect y="780" width="800" height="220" fill="url(#haze)"/><g fill="#1a0e22"><path d="M0 870 Q 40 830 80 860 Q 110 820 160 860 Q 200 830 240 870 Q 290 830 340 870 Q 380 830 420 870 Q 470 830 520 870 Q 560 830 610 870 Q 650 830 700 870 Q 740 830 800 870 L 800 1000 L 0 1000 Z"/></g><!-- Hands in air --><g stroke="#1a0e22" stroke-width="4" stroke-linecap="round"><line x1="130" y1="820" x2="130" y2="870"/><line x1="260" y1="810" x2="260" y2="860"/><line x1="420" y1="800" x2="420" y2="860"/><line x1="560" y1="815" x2="560" y2="870"/><line x1="680" y1="805" x2="680" y2="860"/></g></svg>
