<svg xmlns="http://www.w3.org/2000/svg" viewBox="0 0 800 1000" preserveAspectRatio="xMidYMid slice"><defs><linearGradient id="cshSky" x1="0" x2="0" y1="0" y2="1"><stop offset="0" stop-color="#ffcfa2"/><stop offset="0.4" stop-color="#ffb4c6"/><stop offset="0.85" stop-color="#c4b3d9"/><stop offset="1" stop-color="#5ec8ff"/></linearGradient><linearGradient id="brick" x1="0" x2="0" y1="0" y2="1"><stop offset="0" stop-color="#b05a3c"/><stop offset="1" stop-color="#7a3a26"/></linearGradient></defs><!-- Sky --><rect width="800" height="1000" fill="url(#cshSky)"/><!-- Distant hills (Appalachian foothills) --><path d="M0 480 Q 120 420 240 460 Q 380 420 520 470 Q 660 430 800 470 L 800 560 L 0 560 Z" fill="#8ea98c" opacity="0.8"/><path d="M0 520 Q 180 470 360 510 Q 560 480 800 520 L 800 560 L 0 560 Z" fill="#6e8a6a" opacity="0.85"/><!-- Welcome banner strung across top --><g><path d="M40 80 Q 400 150 760 80" stroke="#1a0e22" stroke-width="3" fill="none"/><g transform="translate(150 110) rotate(-4)"><rect width="500" height="90" fill="#ff3fa4" stroke="#1a0e22" stroke-width="4"/><rect x="6" y="6" width="488" height="78" fill="none" stroke="#ffe66d" stroke-width="2"/><text x="250" y="46" text-anchor="middle" font-family="Staatliches, Impact, sans-serif" font-size="22" fill="#ffe66d" letter-spacing="6">WELCOME TO</text><text x="250" y="80" text-anchor="middle" font-family="Archivo Black, Impact, sans-serif" font-style="italic" font-size="34" fill="#fff" stroke="#1a0e22" stroke-width="1.5" paint-order="stroke">COSHOCTON!</text></g></g><!-- Clock tower / courthouse --><g transform="translate(340 300)"><rect x="0" y="100" width="120" height="180" fill="url(#brick)" stroke="#1a0e22" stroke-width="3"/><rect x="-10" y="90" width="140" height="16" fill="#3d4057" stroke="#1a0e22" stroke-width="3"/><!-- Clock face --><rect x="30" y="120" width="60" height="60" fill="#fff4e6" stroke="#1a0e22" stroke-width="3"/><circle cx="60" cy="150" r="22" fill="none" stroke="#1a0e22" stroke-width="2"/><line x1="60" y1="150" x2="60" y2="134" stroke="#1a0e22" stroke-width="3" stroke-linecap="round"/><line x1="60" y1="150" x2="72" y2="150" stroke="#1a0e22" stroke-width="3" stroke-linecap="round"/><circle cx="60" cy="150" r="2" fill="#1a0e22"/><!-- Tower/roof --><polygon points="0 100, 60 40, 120 100" fill="#3d4057" stroke="#1a0e22" stroke-width="3"/><polygon points="54 40, 60 10, 66 40" fill="#3d4057"/><line x1="60" y1="10" x2="60" y2="-6" stroke="#1a0e22" stroke-width="2"/><polygon points="58 -8, 68 -12, 58 -16" fill="#ffe66d" stroke="#1a0e22" stroke-width="1.5"/><!-- Windows --><g fill="#c4b3d9" stroke="#1a0e22" stroke-width="2"><rect x="14" y="200" width="16" height="30"/><rect x="90" y="200" width="16" height="30"/><rect x="50" y="230" width="20" height="40"/></g></g><!-- Left storefront (brick) --><g transform="translate(40 400)"><rect width="280" height="220" fill="url(#brick)" stroke="#1a0e22" stroke-width="3"/><rect x="20" y="40" width="240" height="60" fill="#5ec8ff" stroke="#1a0e22" stroke-width="3"/><text x="140" y="82" text-anchor="middle" font-family="Archivo Black, Impact, sans-serif" font-style="italic" font-size="30" fill="#1a0e22">DINER</text><rect x="20" y="120" width="100" height="80" fill="#fff4e6" stroke="#1a0e22" stroke-width="2"/><rect x="160" y="120" width="100" height="80" fill="#fff4e6" stroke="#1a0e22" stroke-width="2"/><g stroke="#1a0e22" stroke-width="1.5" fill="none"><line x1="20" y1="160" x2="120" y2="160"/><line x1="70" y1="120" x2="70" y2="200"/><line x1="160" y1="160" x2="260" y2="160"/><line x1="210" y1="120" x2="210" y2="200"/></g></g><!-- Right storefront --><g transform="translate(480 400)"><rect width="280" height="220" fill="#f3e2c8" stroke="#1a0e22" stroke-width="3"/><rect x="0" y="30" width="280" height="60" fill="#ffe66d" stroke="#1a0e22" stroke-width="3"/><text x="140" y="72" text-anchor="middle" font-family="Archivo Black, Impact, sans-serif" font-style="italic" font-size="28" fill="#1a0e22">ROSCOE VILLAGE</text><rect x="20" y="120" width="100" height="80" fill="#fff4e6" stroke="#1a0e22" stroke-width="2"/><rect x="160" y="120" width="100" height="80" fill="#fff4e6" stroke="#1a0e22" stroke-width="2"/><path d="M70 200 L70 120 M20 160 L120 160" stroke="#1a0e22" stroke-width="1.5" fill="none"/><path d="M210 200 L210 120 M160 160 L260 160" stroke="#1a0e22" stroke-width="1.5" fill="none"/></g><!-- Awnings --><g fill="#ff3fa4" stroke="#1a0e22" stroke-width="2"><path d="M40 398 L320 398 L310 420 L50 420 Z"/></g><g fill="#8b4cd6" stroke="#1a0e22" stroke-width="2"><path d="M480 398 L760 398 L750 420 L490 420 Z"/></g><!-- Street lamps --><g><line x1="380" y1="600" x2="380" y2="720" stroke="#1a0e22" stroke-width="4"/><circle cx="380" cy="600" r="12" fill="#ffe66d" stroke="#1a0e22" stroke-width="2"/><line x1="420" y1="600" x2="420" y2="720" stroke="#1a0e22" stroke-width="4"/><circle cx="420" cy="600" r="12" fill="#ffe66d" stroke="#1a0e22" stroke-width="2"/></g><!-- Brick street --><rect x="0" y="720" width="800" height="280" fill="#7a3a26"/><g stroke="#5a2a16" stroke-width="2" opacity="0.6"><line x1="0" y1="760" x2="800" y2="760"/><line x1="0" y1="820" x2="800" y2="820"/><line x1="0" y1="880" x2="800" y2="880"/><line x1="0" y1="940" x2="800" y2="940"/></g><g stroke="#5a2a16" stroke-width="2" opacity="0.6"><line x1="60" y1="720" x2="60" y2="760"/><line x1="180" y1="720" x2="180" y2="760"/><line x1="300" y1="720" x2="300" y2="760"/><line x1="420" y1="720" x2="420" y2="760"/><line x1="540" y1="720" x2="540" y2="760"/><line x1="660" y1="720" x2="660" y2="760"/><line x1="0" y1="760" x2="0" y2="820"/><line x1="120" y1="760" x2="120" y2="820"/><line x1="240" y1="760" x2="240" y2="820"/><line x1="360" y1="760" x2="360" y2="820"/><line x1="480" y1="760" x2="480" y2="820"/><line x1="600" y1="760" x2="600" y2="820"/><line x1="720" y1="760" x2="720" y2="820"/></g><!-- Trees --><g transform="translate(160 520)"><rect x="-6" y="20" width="12" height="40" fill="#5a2a16" stroke="#1a0e22" stroke-width="2"/><circle cx="0" cy="0" r="34" fill="#7ea06f" stroke="#1a0e22" stroke-width="3"/><circle cx="-18" cy="-10" r="18" fill="#7ea06f" stroke="#1a0e22" stroke-width="3"/><circle cx="20" cy="-8" r="20" fill="#7ea06f" stroke="#1a0e22" stroke-width="3"/></g><g transform="translate(640 520)"><rect x="-6" y="20" width="12" height="40" fill="#5a2a16" stroke="#1a0e22" stroke-width="2"/><circle cx="0" cy="0" r="34" fill="#7ea06f" stroke="#1a0e22" stroke-width="3"/><circle cx="-18" cy="-10" r="18" fill="#7ea06f" stroke="#1a0e22" stroke-width="3"/><circle cx="20" cy="-8" r="20" fill="#7ea06f" stroke="#1a0e22" stroke-width="3"/></g><!-- Small marquee banner at bottom --><g transform="translate(150 940)"><rect width="500" height="46" fill="#1a0e22" stroke="#ffe66d" stroke-width="3"/><text x="250" y="32" text-anchor="middle" font-family="Staatliches, Impact, sans-serif" font-size="22" fill="#ffe66d" letter-spacing="6">★ WHAT WOMEN WANT · 2026 ★</text></g></svg>
