<svg xmlns="http://www.w3.org/2000/svg" viewBox="0 0 800 1000" preserveAspectRatio="xMidYMid slice">
  <defs>
    <linearGradient id="cshSky" x1="0" x2="0" y1="0" y2="1">
      <stop offset="0" stop-color="#ffcfa2"/>
      <stop offset="0.35" stop-color="#ffd6e7"/>
      <stop offset="0.75" stop-color="#c4b3d9"/>
      <stop offset="1" stop-color="#8b4cd6"/>
    </linearGradient>
    <linearGradient id="brick" x1="0" x2="0" y1="0" y2="1">
      <stop offset="0" stop-color="#b05a3c"/>
      <stop offset="1" stop-color="#6e3022"/>
    </linearGradient>
    <linearGradient id="brickWarm" x1="0" x2="0" y1="0" y2="1">
      <stop offset="0" stop-color="#d77a4c"/>
      <stop offset="1" stop-color="#8a3e26"/>
    </linearGradient>
    <linearGradient id="roadAsphalt" x1="0" x2="0" y1="0" y2="1">
      <stop offset="0" stop-color="#3d4057"/>
      <stop offset="1" stop-color="#1a0e22"/>
    </linearGradient>
    <pattern id="brickCourses" x="0" y="0" width="40" height="16" patternUnits="userSpaceOnUse">
      <rect width="40" height="16" fill="url(#brick)"/>
      <line x1="0" y1="0" x2="40" y2="0" stroke="#5a2a16" stroke-width="0.6"/>
      <line x1="20" y1="0" x2="20" y2="8" stroke="#5a2a16" stroke-width="0.6"/>
      <line x1="0" y1="8" x2="40" y2="8" stroke="#5a2a16" stroke-width="0.6"/>
      <line x1="40" y1="8" x2="40" y2="16" stroke="#5a2a16" stroke-width="0.6"/>
      <line x1="0" y1="8" x2="0" y2="16" stroke="#5a2a16" stroke-width="0.6"/>
    </pattern>
  </defs>

  <!-- Sky -->
  <rect width="800" height="1000" fill="url(#cshSky)"/>

  <!-- Clouds -->
  <g fill="#fff4e6" opacity="0.75">
    <ellipse cx="150" cy="130" rx="60" ry="14"/>
    <ellipse cx="180" cy="120" rx="40" ry="12"/>
    <ellipse cx="560" cy="100" rx="70" ry="14"/>
    <ellipse cx="590" cy="90" rx="44" ry="12"/>
  </g>

  <!-- Distant hills (Appalachian foothills) -->
  <path d="M0 480 Q 120 420 240 460 Q 380 420 520 470 Q 660 430 800 470 L 800 560 L 0 560 Z" fill="#8ea98c" opacity="0.85"/>
  <path d="M0 520 Q 180 470 360 510 Q 560 480 800 520 L 800 560 L 0 560 Z" fill="#6e8a6a"/>

  <!-- Distant Ferris Wheel (county fair) -->
  <g transform="translate(650 430)">
    <circle cx="0" cy="0" r="38" fill="none" stroke="#1a0e22" stroke-width="2"/>
    <circle cx="0" cy="0" r="3" fill="#1a0e22"/>
    <g stroke="#1a0e22" stroke-width="1.5">
      <line x1="0" y1="-38" x2="0" y2="38"/><line x1="-38" y1="0" x2="38" y2="0"/>
      <line x1="-27" y1="-27" x2="27" y2="27"/><line x1="27" y1="-27" x2="-27" y2="27"/>
    </g>
    <g stroke="#1a0e22" stroke-width="1.5">
      <rect x="-4" y="-42" width="8" height="6" fill="#ff3fa4"/>
      <rect x="-4" y="36" width="8" height="6" fill="#5ec8ff"/>
      <rect x="-42" y="-4" width="6" height="8" fill="#ffe66d"/>
      <rect x="36" y="-4" width="6" height="8" fill="#c6ff3a"/>
      <rect x="-30" y="-30" width="6" height="6" fill="#ff90c2"/>
      <rect x="24" y="-30" width="6" height="6" fill="#5ec8ff"/>
      <rect x="-30" y="24" width="6" height="6" fill="#ffe66d"/>
      <rect x="24" y="24" width="6" height="6" fill="#ff3fa4"/>
    </g>
    <g stroke="#1a0e22" stroke-width="2">
      <line x1="-10" y1="38" x2="-30" y2="70"/>
      <line x1="10" y1="38" x2="30" y2="70"/>
      <line x1="-30" y1="70" x2="30" y2="70"/>
    </g>
  </g>

  <!-- WELCOME BANNER -->
  <g>
    <path d="M40 60 Q 400 140 760 60" stroke="#1a0e22" stroke-width="3" fill="none"/>
    <g transform="translate(140 96) rotate(-3)">
      <rect x="-4" y="-4" width="528" height="96" fill="#1a0e22"/>
      <rect x="0" y="0" width="520" height="88" fill="#ff3fa4" stroke="#ffe66d" stroke-width="3"/>
      <rect x="8" y="8" width="504" height="72" fill="none" stroke="#1a0e22" stroke-width="1.5" stroke-dasharray="4 3"/>
      <text x="260" y="38" text-anchor="middle" font-family="Staatliches, Impact, sans-serif" font-size="22" fill="#ffe66d" letter-spacing="6">WELCOME TO</text>
      <text x="260" y="74" text-anchor="middle" font-family="Archivo Black, Impact, sans-serif" font-style="italic" font-size="38" fill="#fff" stroke="#1a0e22" stroke-width="1.6" paint-order="stroke">COSHOCTON · OH</text>
    </g>
    <!-- Pennant flags -->
    <g stroke="#1a0e22" stroke-width="1.5">
      <polygon points="40,60 54,72 40,84" fill="#ffe66d"/>
      <polygon points="80,66 94,78 80,90" fill="#5ec8ff"/>
      <polygon points="720,66 706,78 720,90" fill="#c6ff3a"/>
      <polygon points="760,60 746,72 760,84" fill="#ff3fa4"/>
    </g>
  </g>

  <!-- POWER LINES -->
  <g stroke="#1a0e22" stroke-width="2">
    <line x1="30" y1="230" x2="30" y2="480"/>
    <line x1="770" y1="230" x2="770" y2="480"/>
    <line x1="20" y1="248" x2="40" y2="248"/>
    <line x1="760" y1="248" x2="780" y2="248"/>
    <path d="M30 260 Q 400 320 770 260" fill="none" opacity="0.7"/>
    <path d="M30 280 Q 400 340 770 280" fill="none" opacity="0.6"/>
  </g>
  <g fill="#1a0e22"><circle cx="30" cy="260" r="3"/><circle cx="770" cy="260" r="3"/></g>

  <!-- TREE CANOPY arching over street -->
  <g>
    <g transform="translate(90 340)">
      <rect x="-8" y="80" width="16" height="60" fill="#5a2a16" stroke="#1a0e22" stroke-width="2"/>
      <circle cx="-24" cy="60" r="58" fill="#d77a4c" stroke="#1a0e22" stroke-width="2"/>
      <circle cx="14" cy="28" r="58" fill="#c26a3c" stroke="#1a0e22" stroke-width="2"/>
      <circle cx="46" cy="56" r="54" fill="#e89c5a" stroke="#1a0e22" stroke-width="2"/>
      <g fill="#ffe66d" opacity="0.9"><circle cx="-40" cy="40" r="4"/><circle cx="30" cy="10" r="4"/><circle cx="60" cy="40" r="4"/></g>
    </g>
    <g transform="translate(720 340)">
      <rect x="-8" y="80" width="16" height="60" fill="#5a2a16" stroke="#1a0e22" stroke-width="2"/>
      <circle cx="-46" cy="56" r="54" fill="#e89c5a" stroke="#1a0e22" stroke-width="2"/>
      <circle cx="-14" cy="28" r="58" fill="#c26a3c" stroke="#1a0e22" stroke-width="2"/>
      <circle cx="24" cy="60" r="58" fill="#d77a4c" stroke="#1a0e22" stroke-width="2"/>
      <g fill="#ffe66d" opacity="0.9"><circle cx="-60" cy="40" r="4"/><circle cx="-30" cy="10" r="4"/><circle cx="40" cy="40" r="4"/></g>
    </g>
  </g>

  <!-- COURTHOUSE (distant, center rear) -->
  <g transform="translate(340 320)">
    <rect x="0" y="110" width="120" height="110" fill="url(#brickWarm)" stroke="#1a0e22" stroke-width="2.5"/>
    <rect x="-10" y="100" width="140" height="14" fill="#3d4057" stroke="#1a0e22" stroke-width="2"/>
    <!-- Portico columns -->
    <g fill="#fff4e6" stroke="#1a0e22" stroke-width="1.5">
      <rect x="16" y="150" width="10" height="60"/><rect x="38" y="150" width="10" height="60"/><rect x="72" y="150" width="10" height="60"/><rect x="94" y="150" width="10" height="60"/>
    </g>
    <!-- Clock face -->
    <rect x="40" y="118" width="40" height="40" fill="#fff4e6" stroke="#1a0e22" stroke-width="2"/>
    <circle cx="60" cy="138" r="14" fill="none" stroke="#1a0e22" stroke-width="1.5"/>
    <line x1="60" y1="138" x2="60" y2="128" stroke="#1a0e22" stroke-width="2" stroke-linecap="round"/>
    <line x1="60" y1="138" x2="68" y2="138" stroke="#1a0e22" stroke-width="2" stroke-linecap="round"/>
    <circle cx="60" cy="138" r="1.5" fill="#1a0e22"/>
    <!-- Tower/roof -->
    <polygon points="-10,100 60,34 130,100" fill="#3d4057" stroke="#1a0e22" stroke-width="2.5"/>
    <polygon points="56,34 60,8 64,34" fill="#3d4057"/>
    <line x1="60" y1="8" x2="60" y2="-14" stroke="#1a0e22" stroke-width="1.5"/>
    <g fill="#ff3fa4" stroke="#1a0e22" stroke-width="1"><rect x="57" y="-14" width="12" height="8"/></g>
    <path d="M57 -6 L69 -6 L63 -2 Z" fill="#ff3fa4"/>
  </g>

  <!-- LEFT STOREFRONT BLOCK -->
  <g transform="translate(20 420)">
    <!-- Rexall Pharmacy -->
    <g>
      <rect x="0" y="0" width="150" height="220" fill="url(#brickCourses)" stroke="#1a0e22" stroke-width="3"/>
      <!-- Sign -->
      <rect x="-4" y="-24" width="158" height="40" fill="#5ec8ff" stroke="#1a0e22" stroke-width="3"/>
      <text x="75" y="8" text-anchor="middle" font-family="Archivo Black, Impact, sans-serif" font-style="italic" font-size="22" fill="#1a0e22">REXALL RX</text>
      <!-- Awning -->
      <path d="M-4 20 L 154 20 L 146 44 L 4 44 Z" fill="#8b4cd6" stroke="#1a0e22" stroke-width="2"/>
      <g stroke="#1a0e22" stroke-width="1"><line x1="20" y1="20" x2="20" y2="44"/><line x1="48" y1="20" x2="48" y2="44"/><line x1="76" y1="20" x2="76" y2="44"/><line x1="104" y1="20" x2="104" y2="44"/><line x1="130" y1="20" x2="130" y2="44"/></g>
      <!-- Window -->
      <rect x="10" y="60" width="130" height="100" fill="#fff4e6" stroke="#1a0e22" stroke-width="2"/>
      <g stroke="#1a0e22" stroke-width="1.2"><line x1="10" y1="110" x2="140" y2="110"/><line x1="75" y1="60" x2="75" y2="160"/></g>
      <text x="75" y="88" text-anchor="middle" font-family="Staatliches, Impact, sans-serif" font-size="13" fill="#ff3fa4" letter-spacing="3">SODAS · PILLS</text>
      <text x="75" y="130" text-anchor="middle" font-family="Staatliches, Impact, sans-serif" font-size="13" fill="#1a0e22" letter-spacing="3">★ FAN CLUB ★</text>
      <!-- Door -->
      <rect x="58" y="170" width="34" height="50" fill="#c8a24a" stroke="#1a0e22" stroke-width="2"/>
      <circle cx="84" cy="196" r="1.5" fill="#1a0e22"/>
    </g>
    <!-- Barber shop -->
    <g transform="translate(150 0)">
      <rect x="0" y="0" width="140" height="220" fill="#fff4e6" stroke="#1a0e22" stroke-width="3"/>
      <rect x="-4" y="-24" width="148" height="40" fill="#1a0e22" stroke="#ffe66d" stroke-width="3"/>
      <text x="70" y="8" text-anchor="middle" font-family="Archivo Black, Impact, sans-serif" font-style="italic" font-size="20" fill="#ffe66d">BARBER</text>
      <rect x="10" y="50" width="120" height="100" fill="#5ec8ff" opacity="0.4" stroke="#1a0e22" stroke-width="2"/>
      <g stroke="#1a0e22" stroke-width="1"><line x1="70" y1="50" x2="70" y2="150"/><line x1="10" y1="100" x2="130" y2="100"/></g>
      <text x="70" y="80" text-anchor="middle" font-family="Staatliches, Impact, sans-serif" font-size="12" fill="#1a0e22" letter-spacing="2">CUTS $8</text>
      <rect x="58" y="158" width="24" height="62" fill="#7a5a26" stroke="#1a0e22" stroke-width="2"/>
      <!-- Barber pole -->
      <g transform="translate(128 32)">
        <rect x="0" y="0" width="12" height="80" fill="#fff4e6" stroke="#1a0e22" stroke-width="2"/>
        <path d="M1 6 L11 14 L11 22 L1 14 Z" fill="#ff3fa4"/>
        <path d="M1 22 L11 30 L11 38 L1 30 Z" fill="#5ec8ff"/>
        <path d="M1 38 L11 46 L11 54 L1 46 Z" fill="#ff3fa4"/>
        <path d="M1 54 L11 62 L11 70 L1 62 Z" fill="#5ec8ff"/>
        <circle cx="6" cy="-4" r="5" fill="#c8a24a" stroke="#1a0e22" stroke-width="1.5"/>
      </g>
    </g>
  </g>

  <!-- RIGHT STOREFRONT BLOCK -->
  <g transform="translate(510 420)">
    <!-- Record Bar -->
    <g>
      <rect x="0" y="0" width="140" height="220" fill="url(#brickCourses)" stroke="#1a0e22" stroke-width="3"/>
      <rect x="-4" y="-24" width="148" height="40" fill="#ffe66d" stroke="#1a0e22" stroke-width="3"/>
      <text x="70" y="8" text-anchor="middle" font-family="Archivo Black, Impact, sans-serif" font-style="italic" font-size="22" fill="#e01f88">RECORD BAR</text>
      <rect x="10" y="20" width="120" height="70" fill="#1a0e22" stroke="#1a0e22" stroke-width="2"/>
      <!-- Album covers in window -->
      <g>
        <rect x="20" y="28" width="40" height="40" fill="#ff3fa4" stroke="#ffe66d" stroke-width="1.5"/>
        <circle cx="40" cy="48" r="12" fill="#1a0e22"/>
        <circle cx="40" cy="48" r="3" fill="#ffe66d"/>
        <rect x="70" y="28" width="40" height="40" fill="#5ec8ff" stroke="#ffe66d" stroke-width="1.5"/>
        <circle cx="90" cy="48" r="12" fill="#1a0e22"/>
        <circle cx="90" cy="48" r="3" fill="#ffe66d"/>
      </g>
      <text x="70" y="82" text-anchor="middle" font-family="Staatliches, Impact, sans-serif" font-size="9" fill="#c6ff3a" letter-spacing="2">NEW RELEASES</text>
      <!-- Lower window -->
      <rect x="10" y="100" width="120" height="70" fill="#fff4e6" stroke="#1a0e22" stroke-width="2"/>
      <g stroke="#1a0e22" stroke-width="1.2"><line x1="70" y1="100" x2="70" y2="170"/></g>
      <rect x="58" y="180" width="24" height="40" fill="#7a5a26" stroke="#1a0e22" stroke-width="2"/>
    </g>
    <!-- Diner / Cafe -->
    <g transform="translate(140 0)">
      <rect x="0" y="0" width="130" height="220" fill="url(#brickCourses)" stroke="#1a0e22" stroke-width="3"/>
      <rect x="-4" y="-24" width="138" height="40" fill="#ff3fa4" stroke="#1a0e22" stroke-width="3"/>
      <text x="65" y="8" text-anchor="middle" font-family="Archivo Black, Impact, sans-serif" font-style="italic" font-size="20" fill="#fff" stroke="#1a0e22" stroke-width="1" paint-order="stroke">DINER</text>
      <path d="M-4 20 L 134 20 L 126 44 L 4 44 Z" fill="#5ec8ff" stroke="#1a0e22" stroke-width="2"/>
      <g stroke="#1a0e22" stroke-width="1"><line x1="20" y1="20" x2="20" y2="44"/><line x1="48" y1="20" x2="48" y2="44"/><line x1="76" y1="20" x2="76" y2="44"/><line x1="104" y1="20" x2="104" y2="44"/></g>
      <rect x="10" y="60" width="110" height="100" fill="#fff4e6" stroke="#1a0e22" stroke-width="2"/>
      <text x="65" y="96" text-anchor="middle" font-family="Staatliches, Impact, sans-serif" font-size="12" fill="#ff3fa4" letter-spacing="3">★ OPEN ★</text>
      <text x="65" y="124" text-anchor="middle" font-family="Caveat, cursive" font-size="16" fill="#1a0e22">milkshakes!</text>
      <rect x="48" y="170" width="34" height="50" fill="#c8a24a" stroke="#1a0e22" stroke-width="2"/>
    </g>
  </g>

  <!-- MOVIE THEATER marquee (very small, ground right between buildings) -->
  <g transform="translate(296 480)">
    <rect x="0" y="0" width="208" height="58" fill="#1a0e22" stroke="#ffe66d" stroke-width="2" rx="4"/>
    <rect x="4" y="4" width="200" height="16" fill="#ff3fa4"/>
    <text x="104" y="17" text-anchor="middle" font-family="Archivo Black, Impact, sans-serif" font-style="italic" font-size="13" fill="#ffe66d">COSHOCTON CINEMA</text>
    <text x="104" y="36" text-anchor="middle" font-family="Staatliches, Impact, sans-serif" font-size="13" fill="#ffe66d" letter-spacing="2">NOW PLAYING</text>
    <text x="104" y="52" text-anchor="middle" font-family="Archivo Black, Impact, sans-serif" font-style="italic" font-size="12" fill="#5ec8ff">WHAT WOMEN WANT</text>
    <!-- Chase bulbs -->
    <g fill="#ffe66d"><circle cx="10" cy="0" r="2"/><circle cx="40" cy="0" r="2"/><circle cx="70" cy="0" r="2"/><circle cx="100" cy="0" r="2"/><circle cx="130" cy="0" r="2"/><circle cx="160" cy="0" r="2"/><circle cx="190" cy="0" r="2"/></g>
  </g>

  <!-- SIDEWALK and STREET -->
  <g>
    <rect x="0" y="640" width="800" height="30" fill="#d7d9e6" stroke="#1a0e22" stroke-width="2"/>
    <g stroke="#8c90a6" stroke-width="0.8" opacity="0.5"><line x1="0" y1="650" x2="800" y2="650"/><line x1="0" y1="660" x2="800" y2="660"/></g>
    <g stroke="#1a0e22" stroke-width="1" opacity="0.4">
      <line x1="60" y1="640" x2="60" y2="670"/><line x1="160" y1="640" x2="160" y2="670"/><line x1="260" y1="640" x2="260" y2="670"/><line x1="360" y1="640" x2="360" y2="670"/><line x1="460" y1="640" x2="460" y2="670"/><line x1="560" y1="640" x2="560" y2="670"/><line x1="660" y1="640" x2="660" y2="670"/><line x1="760" y1="640" x2="760" y2="670"/>
    </g>
    <!-- Asphalt -->
    <rect x="0" y="670" width="800" height="330" fill="url(#roadAsphalt)"/>
    <!-- Lane markings (perspective toward vanishing point) -->
    <g stroke="#ffe66d" stroke-width="4" stroke-dasharray="26 20">
      <line x1="400" y1="680" x2="400" y2="1000" opacity="0.9"/>
    </g>
    <g stroke="#fff4e6" stroke-width="2.5" stroke-dasharray="14 20" opacity="0.7">
      <line x1="180" y1="680" x2="40" y2="1000"/>
      <line x1="620" y1="680" x2="760" y2="1000"/>
    </g>
  </g>

  <!-- Street lamps -->
  <g>
    <line x1="40" y1="640" x2="40" y2="470" stroke="#1a0e22" stroke-width="4"/>
    <circle cx="40" cy="462" r="11" fill="#ffe66d" stroke="#1a0e22" stroke-width="2"/>
    <line x1="760" y1="640" x2="760" y2="470" stroke="#1a0e22" stroke-width="4"/>
    <circle cx="760" cy="462" r="11" fill="#ffe66d" stroke="#1a0e22" stroke-width="2"/>
  </g>

  <!-- PARKED 90S CARS -->
  <!-- Boxy sedan (left foreground) -->
  <g transform="translate(40 780)">
    <rect x="0" y="40" width="180" height="60" fill="#5ec8ff" stroke="#1a0e22" stroke-width="3" rx="6"/>
    <path d="M26 40 L42 14 L136 14 L158 40 Z" fill="#5ec8ff" stroke="#1a0e22" stroke-width="3"/>
    <path d="M34 38 L48 20 L90 20 L90 38 Z" fill="#1a0e22" opacity="0.6"/>
    <path d="M94 38 L94 20 L132 20 L146 38 Z" fill="#1a0e22" opacity="0.6"/>
    <line x1="90" y1="14" x2="90" y2="38" stroke="#1a0e22" stroke-width="1.5"/>
    <rect x="12" y="68" width="24" height="10" fill="#1a0e22"/>
    <rect x="144" y="68" width="24" height="10" fill="#ffe66d"/>
    <circle cx="38" cy="100" r="16" fill="#1a0e22" stroke="#8c90a6" stroke-width="2"/>
    <circle cx="38" cy="100" r="7" fill="#8c90a6"/>
    <circle cx="142" cy="100" r="16" fill="#1a0e22" stroke="#8c90a6" stroke-width="2"/>
    <circle cx="142" cy="100" r="7" fill="#8c90a6"/>
  </g>
  <!-- Wood-panel station wagon (right foreground) -->
  <g transform="translate(580 790)">
    <rect x="0" y="30" width="190" height="60" fill="#8a3e26" stroke="#1a0e22" stroke-width="3" rx="6"/>
    <rect x="16" y="40" width="162" height="36" fill="#c8a24a" stroke="#1a0e22" stroke-width="2"/>
    <g stroke="#5a2a16" stroke-width="1.2" opacity="0.8">
      <line x1="30" y1="42" x2="30" y2="74"/><line x1="50" y1="42" x2="50" y2="74"/><line x1="70" y1="42" x2="70" y2="74"/><line x1="90" y1="42" x2="90" y2="74"/><line x1="110" y1="42" x2="110" y2="74"/><line x1="130" y1="42" x2="130" y2="74"/><line x1="150" y1="42" x2="150" y2="74"/><line x1="170" y1="42" x2="170" y2="74"/>
    </g>
    <path d="M22 30 L34 6 L168 6 L178 30 Z" fill="#8a3e26" stroke="#1a0e22" stroke-width="3"/>
    <path d="M30 28 L42 12 L90 12 L90 28 Z" fill="#1a0e22" opacity="0.6"/>
    <path d="M94 28 L94 12 L162 12 L172 28 Z" fill="#1a0e22" opacity="0.6"/>
    <circle cx="42" cy="90" r="16" fill="#1a0e22" stroke="#8c90a6" stroke-width="2"/>
    <circle cx="42" cy="90" r="7" fill="#8c90a6"/>
    <circle cx="156" cy="90" r="16" fill="#1a0e22" stroke="#8c90a6" stroke-width="2"/>
    <circle cx="156" cy="90" r="7" fill="#8c90a6"/>
    <rect x="174" y="58" width="18" height="10" fill="#ffe66d"/>
  </g>

  <!-- Small town bottom marquee banner -->
  <g transform="translate(150 950)">
    <rect x="-4" y="-4" width="508" height="44" fill="#1a0e22"/>
    <rect x="0" y="0" width="500" height="36" fill="#1a0e22" stroke="#ffe66d" stroke-width="2"/>
    <text x="250" y="24" text-anchor="middle" font-family="Staatliches, Impact, sans-serif" font-size="18" fill="#ffe66d" letter-spacing="6">★ WHAT WOMEN WANT · 2026 · POP. 11,682 ★</text>
  </g>
</svg>
