<svg xmlns="http://www.w3.org/2000/svg" viewBox="0 0 800 1000" preserveAspectRatio="xMidYMid slice" font-family="Archivo Black, Impact, Haettenschweiler, Arial Black, sans-serif"><!-- Notebook paper: cream bg + ruled lines + red margin --><rect width="800" height="1000" fill="#fff9ec"/><!-- Ruled lines --><g stroke="#b6d4ea" stroke-width="1.5"><line x1="0" y1="120" x2="800" y2="120"/><line x1="0" y1="170" x2="800" y2="170"/><line x1="0" y1="220" x2="800" y2="220"/><line x1="0" y1="270" x2="800" y2="270"/><line x1="0" y1="320" x2="800" y2="320"/><line x1="0" y1="370" x2="800" y2="370"/><line x1="0" y1="420" x2="800" y2="420"/><line x1="0" y1="470" x2="800" y2="470"/><line x1="0" y1="520" x2="800" y2="520"/><line x1="0" y1="570" x2="800" y2="570"/><line x1="0" y1="620" x2="800" y2="620"/><line x1="0" y1="670" x2="800" y2="670"/><line x1="0" y1="720" x2="800" y2="720"/><line x1="0" y1="770" x2="800" y2="770"/><line x1="0" y1="820" x2="800" y2="820"/><line x1="0" y1="870" x2="800" y2="870"/><line x1="0" y1="920" x2="800" y2="920"/></g><!-- Red margin line --><line x1="108" y1="0" x2="108" y2="1000" stroke="#ff3fa4" stroke-width="2"/><!-- Three hole punches --><circle cx="54" cy="160" r="14" fill="#fff" stroke="#1a0e22" stroke-width="2"/><circle cx="54" cy="500" r="14" fill="#fff" stroke="#1a0e22" stroke-width="2"/><circle cx="54" cy="840" r="14" fill="#fff" stroke="#1a0e22" stroke-width="2"/><!-- Top handwritten date --><text x="140" y="80" font-family="Caveat, cursive" font-size="42" fill="#1a0e22">Dear Diary ~</text><text x="520" y="80" font-family="Caveat, cursive" font-size="32" fill="#ff3fa4" transform="rotate(-4 520 80)">Oct. 14, 1999</text><!-- Bottom handwritten sign-off --><text x="140" y="970" font-family="Caveat, cursive" font-size="44" fill="#1a0e22" transform="rotate(-2 140 970)">♥ BFF 4EVR ♥</text><!-- Corner doodles --><g fill="#ff90c2" stroke="#1a0e22" stroke-width="3"><path d="M720 140 C 700 120, 704 96, 724 96 C 732 96, 736 104, 736 110 C 736 104, 740 96, 748 96 C 768 96, 772 120, 752 140 L 736 152 Z"/></g><g fill="#ffe66d" stroke="#1a0e22" stroke-width="2.5"><path d="M700 920 L708 938 L728 940 L712 952 L716 970 L700 960 L684 970 L688 952 L672 940 L692 938 Z"/></g><g fill="#5ec8ff" stroke="#1a0e22" stroke-width="2"><path d="M90 960 L96 972 L108 974 L98 982 L100 994 L90 988 L80 994 L82 982 L72 974 L84 972 Z" transform="rotate(-10 90 974)"/></g></svg>
