<svg xmlns="http://www.w3.org/2000/svg" viewBox="0 0 800 1000" preserveAspectRatio="xMidYMid slice"><defs><linearGradient id="leather" x1="0" x2="0" y1="0" y2="1"><stop offset="0" stop-color="#2a1a38"/><stop offset="1" stop-color="#0a0614"/></linearGradient><linearGradient id="window" x1="0" x2="0" y1="0" y2="1"><stop offset="0" stop-color="#1a0e22"/><stop offset="1" stop-color="#0a0614"/></linearGradient></defs><rect width="800" height="1000" fill="url(#leather)"/><!-- Window glowing with city lights --><rect x="40" y="60" width="720" height="200" rx="14" fill="url(#window)" stroke="#3d4057" stroke-width="3"/><g fill="#ffe66d"><circle cx="120" cy="160" r="3"/><circle cx="180" cy="140" r="2"/><circle cx="240" cy="170" r="3"/><circle cx="310" cy="130" r="2"/><circle cx="380" cy="150" r="3"/><circle cx="450" cy="125" r="2"/><circle cx="520" cy="160" r="3"/><circle cx="580" cy="145" r="2"/><circle cx="640" cy="170" r="3"/><circle cx="700" cy="150" r="2"/></g><g fill="#ff3fa4"><circle cx="150" cy="200" r="4"/><circle cx="410" cy="210" r="4"/><circle cx="620" cy="200" r="4"/></g><g fill="#5ec8ff"><circle cx="220" cy="220" r="3"/><circle cx="480" cy="200" r="3"/><circle cx="680" cy="220" r="3"/></g><!-- Neon strip lights along ceiling --><rect x="0" y="280" width="800" height="8" fill="#ff3fa4" opacity="0.8"/><rect x="0" y="280" width="800" height="3" fill="#ff90c2"/><!-- Leather seat back (tufted with diamond pattern) --><rect x="0" y="330" width="800" height="670" fill="url(#leather)"/><g stroke="#3d4057" stroke-width="1" opacity="0.6" fill="none"><path d="M80 400 L160 450 L240 400 L320 450 L400 400 L480 450 L560 400 L640 450 L720 400"/><path d="M80 500 L160 550 L240 500 L320 550 L400 500 L480 550 L560 500 L640 550 L720 500"/><path d="M80 600 L160 650 L240 600 L320 650 L400 600 L480 650 L560 600 L640 650 L720 600"/><path d="M80 700 L160 750 L240 700 L320 750 L400 700 L480 750 L560 700 L640 750 L720 700"/></g><g fill="#ffe66d" opacity="0.8"><circle cx="160" cy="450" r="3"/><circle cx="320" cy="450" r="3"/><circle cx="480" cy="450" r="3"/><circle cx="640" cy="450" r="3"/><circle cx="160" cy="550" r="3"/><circle cx="320" cy="550" r="3"/><circle cx="480" cy="550" r="3"/><circle cx="640" cy="550" r="3"/><circle cx="160" cy="650" r="3"/><circle cx="320" cy="650" r="3"/><circle cx="480" cy="650" r="3"/><circle cx="640" cy="650" r="3"/></g><!-- Champagne bucket foreground --><g transform="translate(80 820)"><rect x="0" y="30" width="150" height="110" rx="10" fill="#8c90a6" stroke="#1a0e22" stroke-width="4"/><rect x="0" y="30" width="150" height="18" fill="#d7d9e6"/><path d="M60 0 L90 0 L100 40 L50 40 Z" fill="#ffe66d" stroke="#1a0e22" stroke-width="3"/><circle cx="60" cy="14" r="6" fill="#ff3fa4" stroke="#1a0e22" stroke-width="2"/></g></svg>
