<svg xmlns="http://www.w3.org/2000/svg" viewBox="0 0 800 1000" preserveAspectRatio="xMidYMid slice"><defs><linearGradient id="mallSky" x1="0" x2="0" y1="0" y2="1"><stop offset="0" stop-color="#ffd6e7"/><stop offset="0.6" stop-color="#fff4e6"/><stop offset="1" stop-color="#f3e2c8"/></linearGradient><linearGradient id="water" x1="0" x2="0" y1="0" y2="1"><stop offset="0" stop-color="#9fdaff"/><stop offset="1" stop-color="#2a9cd8"/></linearGradient></defs><rect width="800" height="1000" fill="url(#mallSky)"/><!-- Skylight grid --><g stroke="#c8a24a" stroke-width="2" opacity="0.45"><path d="M0 0 L800 0 M0 60 L800 60 M0 120 L800 120 M0 180 L800 180"/><path d="M100 0 L100 180 M200 0 L200 180 M300 0 L300 180 M400 0 L400 180 M500 0 L500 180 M600 0 L600 180 M700 0 L700 180"/></g><!-- Second-story balcony railings --><g stroke="#8c90a6" stroke-width="3"><line x1="0" y1="260" x2="800" y2="260"/><line x1="0" y1="290" x2="800" y2="290"/></g><g fill="#8c90a6"><rect x="10" y="265" width="8" height="30"/><rect x="80" y="265" width="8" height="30"/><rect x="150" y="265" width="8" height="30"/><rect x="220" y="265" width="8" height="30"/><rect x="290" y="265" width="8" height="30"/><rect x="360" y="265" width="8" height="30"/><rect x="430" y="265" width="8" height="30"/><rect x="500" y="265" width="8" height="30"/><rect x="570" y="265" width="8" height="30"/><rect x="640" y="265" width="8" height="30"/><rect x="710" y="265" width="8" height="30"/><rect x="780" y="265" width="8" height="30"/></g><!-- Storefront signs (generic) --><g><rect x="60" y="340" width="200" height="60" rx="8" fill="#ff3fa4" stroke="#1a0e22" stroke-width="3"/><text x="160" y="380" text-anchor="middle" font-family="Archivo Black, Impact, sans-serif" font-style="italic" font-size="26" fill="#fff">GLAMOUR</text><rect x="300" y="340" width="180" height="60" rx="8" fill="#5ec8ff" stroke="#1a0e22" stroke-width="3"/><text x="390" y="380" text-anchor="middle" font-family="Archivo Black, Impact, sans-serif" font-style="italic" font-size="26" fill="#1a0e22">SUNGLASS</text><rect x="520" y="340" width="220" height="60" rx="8" fill="#ffe66d" stroke="#1a0e22" stroke-width="3"/><text x="630" y="380" text-anchor="middle" font-family="Archivo Black, Impact, sans-serif" font-style="italic" font-size="26" fill="#1a0e22">CLAIRE'S</text></g><!-- Fountain below --><ellipse cx="400" cy="820" rx="320" ry="60" fill="#d7d9e6" stroke="#1a0e22" stroke-width="4"/><ellipse cx="400" cy="820" rx="280" ry="40" fill="url(#water)"/><rect x="388" y="620" width="24" height="200" fill="#8c90a6" stroke="#1a0e22" stroke-width="2"/><g fill="#fff" opacity="0.8"><path d="M400 620 Q 380 580 388 530 Q 400 500 412 530 Q 420 580 400 620"/><circle cx="380" cy="660" r="6"/><circle cx="420" cy="650" r="5"/><circle cx="360" cy="700" r="4"/><circle cx="440" cy="690" r="4"/></g><!-- Floor tile pattern --><g fill="#f3e2c8" stroke="#c8a24a" stroke-width="1" opacity="0.6"><rect x="0" y="900" width="100" height="100"/><rect x="100" y="900" width="100" height="100"/><rect x="200" y="900" width="100" height="100"/><rect x="300" y="900" width="100" height="100"/><rect x="400" y="900" width="100" height="100"/><rect x="500" y="900" width="100" height="100"/><rect x="600" y="900" width="100" height="100"/><rect x="700" y="900" width="100" height="100"/></g></svg>
