<svg xmlns="http://www.w3.org/2000/svg" viewBox="0 0 800 1000" preserveAspectRatio="xMidYMid slice"><defs><linearGradient id="bed" x1="0" x2="0" y1="0" y2="1"><stop offset="0" stop-color="#ffd6e7"/><stop offset="1" stop-color="#ff90c2"/></linearGradient></defs><rect width="800" height="1000" fill="url(#bed)"/><!-- Wallpaper hearts pattern --><g fill="#ff3fa4" opacity="0.3"><path d="M100 80 C 80 60, 84 36, 104 36 C 112 36, 116 44, 116 50 C 116 44, 120 36, 128 36 C 148 36, 152 60, 132 80 L 116 92 Z"/><path d="M280 140 C 260 120, 264 96, 284 96 C 292 96, 296 104, 296 110 C 296 104, 300 96, 308 96 C 328 96, 332 120, 312 140 L 296 152 Z"/><path d="M460 80 C 440 60, 444 36, 464 36 C 472 36, 476 44, 476 50 C 476 44, 480 36, 488 36 C 508 36, 512 60, 492 80 L 476 92 Z"/><path d="M640 160 C 620 140, 624 116, 644 116 C 652 116, 656 124, 656 130 C 656 124, 660 116, 668 116 C 688 116, 692 140, 672 160 L 656 172 Z"/></g><!-- Poster 1 (pink) --><g transform="translate(80 220) rotate(-4)"><rect width="260" height="340" fill="#1a0e22" stroke="#1a0e22" stroke-width="8"/><rect x="10" y="10" width="240" height="320" fill="#ff3fa4"/><text x="130" y="60" text-anchor="middle" font-family="Archivo Black, Impact, sans-serif" font-style="italic" font-size="30" fill="#fff" stroke="#1a0e22" stroke-width="1.5" paint-order="stroke">THE</text><text x="130" y="100" text-anchor="middle" font-family="Archivo Black, Impact, sans-serif" font-style="italic" font-size="30" fill="#fff" stroke="#1a0e22" stroke-width="1.5" paint-order="stroke">BOYS</text><circle cx="100" cy="180" r="36" fill="#ffe66d" stroke="#1a0e22" stroke-width="3"/><circle cx="160" cy="180" r="36" fill="#5ec8ff" stroke="#1a0e22" stroke-width="3"/><text x="130" y="286" text-anchor="middle" font-family="Staatliches, Impact, sans-serif" font-size="16" fill="#fff4e6">TOUR ’99</text></g><!-- Poster 2 (cyan) --><g transform="translate(470 280) rotate(5)"><rect width="240" height="310" fill="#1a0e22" stroke="#1a0e22" stroke-width="8"/><rect x="10" y="10" width="220" height="290" fill="#5ec8ff"/><text x="120" y="60" text-anchor="middle" font-family="Archivo Black, Impact, sans-serif" font-style="italic" font-size="26" fill="#1a0e22">HEART-</text><text x="120" y="92" text-anchor="middle" font-family="Archivo Black, Impact, sans-serif" font-style="italic" font-size="26" fill="#1a0e22">THROBS</text><circle cx="120" cy="170" r="50" fill="#fff4e6" stroke="#1a0e22" stroke-width="3"/><path d="M85 170 Q 120 200 155 170" stroke="#1a0e22" stroke-width="4" fill="none"/><text x="120" y="270" text-anchor="middle" font-family="Staatliches, Impact, sans-serif" font-size="16" fill="#1a0e22">FAN CLUB ONLY</text></g><!-- Fairy lights --><g stroke="#1a0e22" stroke-width="3" fill="none" opacity="0.7"><path d="M0 60 Q 200 120 400 60 T 800 60"/></g><g><circle cx="80" cy="86" r="5" fill="#ffe66d"/><circle cx="180" cy="104" r="5" fill="#5ec8ff"/><circle cx="280" cy="98" r="5" fill="#ff90c2"/><circle cx="380" cy="66" r="5" fill="#ffe66d"/><circle cx="480" cy="82" r="5" fill="#5ec8ff"/><circle cx="580" cy="94" r="5" fill="#ff90c2"/><circle cx="680" cy="82" r="5" fill="#ffe66d"/><circle cx="760" cy="70" r="5" fill="#5ec8ff"/></g><!-- Beaded curtain bottom --><g stroke="#1a0e22" stroke-width="2" opacity="0.6"><line x1="50" y1="820" x2="50" y2="1000"/><line x1="130" y1="820" x2="130" y2="1000"/><line x1="210" y1="820" x2="210" y2="1000"/><line x1="290" y1="820" x2="290" y2="1000"/><line x1="370" y1="820" x2="370" y2="1000"/><line x1="450" y1="820" x2="450" y2="1000"/><line x1="530" y1="820" x2="530" y2="1000"/><line x1="610" y1="820" x2="610" y2="1000"/><line x1="690" y1="820" x2="690" y2="1000"/><line x1="770" y1="820" x2="770" y2="1000"/></g></svg>
