<svg xmlns="http://www.w3.org/2000/svg" viewBox="0 0 800 1000" preserveAspectRatio="none" font-family="Archivo Black, Impact, Haettenschweiler, Arial Black, sans-serif"><defs><linearGradient id="tpass" x1="0" x2="0" y1="0" y2="1"><stop offset="0" stop-color="#1a0e22"/><stop offset="1" stop-color="#2a1a38"/></linearGradient></defs><!-- Lanyard --><rect x="360" y="0" width="80" height="30" fill="#8c90a6" stroke="#1a0e22" stroke-width="2"/><rect x="352" y="26" width="96" height="16" rx="3" fill="#6c7094" stroke="#1a0e22" stroke-width="2"/><!-- Top dark bar --><rect x="0" y="42" width="800" height="140" fill="url(#tpass)"/><text x="400" y="112" text-anchor="middle" font-style="italic" font-size="76" fill="#ff3fa4" stroke="#ffe66d" stroke-width="2" paint-order="stroke">ALL ACCESS</text><text x="400" y="152" text-anchor="middle" font-family="Staatliches, Impact, sans-serif" font-size="20" fill="#5ec8ff" letter-spacing="6">WHAT WOMEN WANT · V.I.P.</text><!-- Punch holes --><circle cx="30" cy="210" r="7" fill="#0a0614" stroke="#1a0e22" stroke-width="2"/><circle cx="770" cy="210" r="7" fill="#0a0614" stroke="#1a0e22" stroke-width="2"/><!-- Bottom strip --><rect x="0" y="850" width="800" height="150" fill="url(#tpass)"/><text x="400" y="902" text-anchor="middle" font-family="Staatliches, Impact, sans-serif" font-size="22" fill="#ffe66d" letter-spacing="6">★ BACKSTAGE · GREEN ROOM ★</text><!-- Barcode --><g transform="translate(240 920)" fill="#fff4e6"><rect width="2" height="44"/><rect x="4" width="1" height="44"/><rect x="7" width="3" height="44"/><rect x="12" width="1" height="44"/><rect x="15" width="2" height="44"/><rect x="19" width="4" height="44"/><rect x="25" width="1" height="44"/><rect x="28" width="2" height="44"/><rect x="32" width="1" height="44"/><rect x="35" width="3" height="44"/><rect x="40" width="2" height="44"/><rect x="44" width="1" height="44"/><rect x="47" width="4" height="44"/><rect x="53" width="1" height="44"/><rect x="56" width="2" height="44"/><rect x="60" width="1" height="44"/><rect x="63" width="3" height="44"/><rect x="68" width="2" height="44"/><rect x="72" width="1" height="44"/><rect x="75" width="4" height="44"/><rect x="81" width="2" height="44"/><rect x="85" width="1" height="44"/><rect x="88" width="3" height="44"/><rect x="93" width="2" height="44"/><rect x="97" width="1" height="44"/><rect x="100" width="4" height="44"/><rect x="106" width="1" height="44"/><rect x="109" width="2" height="44"/><rect x="113" width="2" height="44"/><rect x="117" width="1" height="44"/><rect x="120" width="4" height="44"/><rect x="126" width="2" height="44"/><rect x="130" width="1" height="44"/><rect x="133" width="3" height="44"/><rect x="140" width="1" height="44"/><rect x="144" width="2" height="44"/><rect x="149" width="3" height="44"/><rect x="155" width="1" height="44"/><rect x="159" width="4" height="44"/><rect x="166" width="2" height="44"/><rect x="171" width="1" height="44"/><rect x="175" width="3" height="44"/><rect x="181" width="2" height="44"/><rect x="186" width="1" height="44"/><rect x="190" width="4" height="44"/><rect x="197" width="2" height="44"/><rect x="202" width="1" height="44"/><rect x="206" width="3" height="44"/><rect x="212" width="2" height="44"/><rect x="217" width="1" height="44"/><rect x="221" width="4" height="44"/><rect x="228" width="2" height="44"/><rect x="233" width="1" height="44"/><rect x="237" width="3" height="44"/><rect x="243" width="2" height="44"/><rect x="248" width="1" height="44"/><rect x="252" width="4" height="44"/><rect x="259" width="1" height="44"/><rect x="263" width="2" height="44"/><rect x="268" width="3" height="44"/><rect x="274" width="1" height="44"/><rect x="278" width="4" height="44"/><rect x="285" width="2" height="44"/><rect x="290" width="1" height="44"/><rect x="294" width="3" height="44"/><rect x="300" width="2" height="44"/><rect x="305" width="1" height="44"/><rect x="309" width="4" height="44"/></g><text x="400" y="988" text-anchor="middle" font-family="ui-monospace, Menlo, monospace" font-size="14" fill="#fff4e6" letter-spacing="4">NO. 0001 · ADMIT ONE</text></svg>
