<svg xmlns="http://www.w3.org/2000/svg" viewBox="0 0 800 1000" preserveAspectRatio="none" font-family="Archivo Black, Impact, Haettenschweiler, Arial Black, sans-serif"><defs><linearGradient id="chrome" x1="0" x2="0" y1="0" y2="1"><stop offset="0" stop-color="#f7f7fb"/><stop offset="0.4" stop-color="#d7d9e6"/><stop offset="0.8" stop-color="#8c90a6"/><stop offset="1" stop-color="#3d4057"/></linearGradient><linearGradient id="pinkband" x1="0" x2="1" y1="0" y2="0"><stop offset="0" stop-color="#ff3fa4"/><stop offset="1" stop-color="#5ec8ff"/></linearGradient></defs><!-- Outer chrome border --><rect x="0" y="0" width="800" height="1000" fill="none" stroke="url(#chrome)" stroke-width="40"/><!-- Corner stars --><g fill="#ffe66d" stroke="#1a0e22" stroke-width="3"><path d="M80 80 L90 104 L116 108 L96 126 L102 152 L80 138 L58 152 L64 126 L44 108 L70 104 Z"/><path d="M720 80 L730 104 L756 108 L736 126 L742 152 L720 138 L698 152 L704 126 L684 108 L710 104 Z"/><path d="M80 920 L90 944 L116 948 L96 966 L102 992 L80 978 L58 992 L64 966 L44 948 L70 944 Z"/><path d="M720 920 L730 944 L756 948 L736 966 L742 992 L720 978 L698 992 L704 966 L684 948 L710 944 Z"/></g><!-- Top title bar --><rect x="60" y="180" width="680" height="80" rx="8" fill="url(#pinkband)" stroke="#1a0e22" stroke-width="4"/><text x="400" y="238" text-anchor="middle" font-style="italic" font-size="40" fill="#fff" stroke="#1a0e22" stroke-width="2" paint-order="stroke">★ CENTERFOLD ★</text><!-- Bottom caption --><rect x="60" y="800" width="680" height="70" rx="8" fill="#ffe66d" stroke="#1a0e22" stroke-width="4"/><text x="400" y="848" text-anchor="middle" font-family="Staatliches, Impact, sans-serif" font-size="28" fill="#1a0e22" letter-spacing="10">TOTAL REQUEST LIVE</text></svg>
