<svg xmlns="http://www.w3.org/2000/svg" viewBox="0 0 800 1000" preserveAspectRatio="none"><g fill="none" stroke="#c8a24a" stroke-width="3"><rect x="30" y="30" width="740" height="940" rx="8"/></g><g opacity="0.95"><!-- top-left cluster --><g transform="translate(60 60)"><circle cx="0" cy="0" r="18" fill="#f7b8d7" stroke="#a5515a" stroke-width="2"/><circle cx="30" cy="18" r="14" fill="#fad0e3" stroke="#a5515a" stroke-width="2"/><circle cx="18" cy="36" r="12" fill="#f5d56a" stroke="#a5515a" stroke-width="2"/><path d="M-10 50 Q 10 70 38 48" stroke="#7ed98f" stroke-width="3" fill="none"/></g><!-- top-right cluster --><g transform="translate(740 60) scale(-1 1)"><circle cx="0" cy="0" r="18" fill="#f7b8d7" stroke="#a5515a" stroke-width="2"/><circle cx="30" cy="18" r="14" fill="#fad0e3" stroke="#a5515a" stroke-width="2"/><circle cx="18" cy="36" r="12" fill="#f5d56a" stroke="#a5515a" stroke-width="2"/><path d="M-10 50 Q 10 70 38 48" stroke="#7ed98f" stroke-width="3" fill="none"/></g><!-- bottom-left --><g transform="translate(60 940) scale(1 -1)"><circle cx="0" cy="0" r="18" fill="#f7b8d7" stroke="#a5515a" stroke-width="2"/><circle cx="30" cy="18" r="14" fill="#fad0e3" stroke="#a5515a" stroke-width="2"/><circle cx="18" cy="36" r="12" fill="#f5d56a" stroke="#a5515a" stroke-width="2"/></g><!-- bottom-right --><g transform="translate(740 940) scale(-1 -1)"><circle cx="0" cy="0" r="18" fill="#f7b8d7" stroke="#a5515a" stroke-width="2"/><circle cx="30" cy="18" r="14" fill="#fad0e3" stroke="#a5515a" stroke-width="2"/><circle cx="18" cy="36" r="12" fill="#f5d56a" stroke="#a5515a" stroke-width="2"/></g></g><text x="400" y="975" font-family="Georgia, 'Playfair Display', serif" font-size="20" font-style="italic" fill="#a5515a" text-anchor="middle">What Women Want · 2026</text></svg>
