<svg xmlns="http://www.w3.org/2000/svg" viewBox="0 0 800 1000" preserveAspectRatio="none" font-family="Archivo Black, Impact, Haettenschweiler, Arial Black, sans-serif"><defs><linearGradient id="band" x1="0" x2="1" y1="0" y2="0"><stop offset="0" stop-color="#ff3fa4"/><stop offset="1" stop-color="#8b4cd6"/></linearGradient></defs><!-- Top magazine banner --><rect x="0" y="0" width="800" height="130" fill="url(#band)"/><text x="400" y="76" text-anchor="middle" font-style="italic" font-size="60" fill="#fff" stroke="#1a0e22" stroke-width="2" paint-order="stroke">WHAT WOMEN WANT!</text><text x="400" y="112" text-anchor="middle" font-family="Staatliches, Impact, sans-serif" font-size="22" fill="#fff4e6" letter-spacing="6">★ NO. 1 · 2026 · HEARTTHROB ISSUE ★</text><!-- Side cover lines --><g font-family="Staatliches, Impact, sans-serif" fill="#1a0e22"><rect x="30" y="200" width="170" height="40" fill="#ffe66d" stroke="#1a0e22" stroke-width="3"/><text x="40" y="230" font-size="22" letter-spacing="3">EXCLUSIVE!</text><rect x="30" y="300" width="200" height="40" fill="#5ec8ff" stroke="#1a0e22" stroke-width="3"/><text x="40" y="330" font-size="22" letter-spacing="3">TOTAL FAN CLUB</text></g><!-- Seal top-right --><g transform="translate(700 250)"><circle r="66" fill="#ffe66d" stroke="#1a0e22" stroke-width="4"/><text text-anchor="middle" font-style="italic" font-size="20" fill="#1a0e22" y="-8">TOTAL</text><text text-anchor="middle" font-style="italic" font-size="20" fill="#1a0e22" y="14">CRUSH</text></g><!-- Footer barcode + issue --><rect x="0" y="930" width="800" height="70" fill="#1a0e22"/><g fill="#ffe66d" transform="translate(40 952)"><rect width="3" height="36"/><rect x="6" width="1" height="36"/><rect x="10" width="2" height="36"/><rect x="14" width="3" height="36"/><rect x="20" width="1" height="36"/><rect x="23" width="2" height="36"/><rect x="28" width="1" height="36"/><rect x="31" width="3" height="36"/><rect x="37" width="2" height="36"/><rect x="41" width="1" height="36"/><rect x="44" width="3" height="36"/><rect x="50" width="1" height="36"/><rect x="54" width="2" height="36"/><rect x="59" width="3" height="36"/><rect x="65" width="2" height="36"/><rect x="70" width="1" height="36"/></g><text x="400" y="976" text-anchor="middle" font-family="Staatliches, Impact, sans-serif" font-size="20" fill="#ff3fa4" letter-spacing="8">CENTERFOLD EDITION</text></svg>
