<svg xmlns="http://www.w3.org/2000/svg" viewBox="0 0 200 200"><defs><linearGradient id="bff" x1="0" x2="1" y1="0" y2="0"><stop offset="0" stop-color="#5ec8ff"/><stop offset="1" stop-color="#ff3fa4"/></linearGradient></defs><rect x="12" y="48" width="176" height="104" rx="12" fill="url(#bff)" stroke="#1a0e22" stroke-width="5" transform="rotate(-6 100 100)"/><text x="100" y="120" text-anchor="middle" font-family="Archivo Black, Impact, sans-serif" font-size="60" font-style="italic" fill="#fff" stroke="#1a0e22" stroke-width="2" paint-order="stroke" transform="rotate(-6 100 100)">BFF</text><g transform="rotate(-6 100 100)"><path d="M60 60 L66 70 L76 72 L68 80 L70 90 L60 84 L50 90 L52 80 L44 72 L54 70 Z" fill="#ffe66d" stroke="#1a0e22" stroke-width="2"/><path d="M140 140 L146 150 L156 152 L148 160 L150 170 L140 164 L130 170 L132 160 L124 152 L134 150 Z" fill="#ffe66d" stroke="#1a0e22" stroke-width="2"/></g></svg>
