<svg xmlns="http://www.w3.org/2000/svg" viewBox="0 0 200 200"><defs><linearGradient id="w" x1="0" x2="0" y1="0" y2="1"><stop offset="0" stop-color="#ff90c2"/><stop offset="0.5" stop-color="#5ec8ff"/><stop offset="1" stop-color="#8b4cd6"/></linearGradient></defs><g stroke="#1a0e22" stroke-width="4" stroke-linejoin="round"><path d="M100 100 C 60 50, 28 58, 24 94 C 22 118, 58 130, 100 108 Z" fill="url(#w)"/><path d="M100 100 C 140 50, 172 58, 176 94 C 178 118, 142 130, 100 108 Z" fill="url(#w)"/><path d="M100 108 C 70 140, 50 150, 44 130 C 40 116, 70 112, 100 100 Z" fill="url(#w)"/><path d="M100 108 C 130 140, 150 150, 156 130 C 160 116, 130 112, 100 100 Z" fill="url(#w)"/></g><g fill="#fff" opacity="0.55"><circle cx="52" cy="86" r="5"/><circle cx="148" cy="86" r="5"/></g><ellipse cx="100" cy="108" rx="6" ry="32" fill="#1a0e22"/><circle cx="100" cy="74" r="6" fill="#1a0e22"/><path d="M96 70 Q 88 50 80 46" stroke="#1a0e22" stroke-width="3" fill="none" stroke-linecap="round"/><path d="M104 70 Q 112 50 120 46" stroke="#1a0e22" stroke-width="3" fill="none" stroke-linecap="round"/></svg>
