<svg xmlns="http://www.w3.org/2000/svg" viewBox="0 0 200 200"><defs><radialGradient id="db" cx="0.4" cy="0.35" r="0.6"><stop offset="0" stop-color="#ffffff"/><stop offset="0.4" stop-color="#d7d9e6"/><stop offset="1" stop-color="#3d4057"/></radialGradient></defs><circle cx="100" cy="110" r="74" fill="url(#db)" stroke="#1a0e22" stroke-width="4"/><g stroke="#1a0e22" stroke-width="1" fill="none"><path d="M30 110 Q 100 96 170 110"/><path d="M30 110 Q 100 124 170 110"/><ellipse cx="100" cy="110" rx="74" ry="22" transform="rotate(30 100 110)"/><ellipse cx="100" cy="110" rx="74" ry="22" transform="rotate(-30 100 110)"/><line x1="100" y1="36" x2="100" y2="184"/><line x1="60" y1="42" x2="140" y2="178"/><line x1="140" y1="42" x2="60" y2="178"/></g><g fill="#ffe66d" opacity="0.7"><rect x="68" y="70" width="10" height="10"/><rect x="116" y="82" width="10" height="10"/><rect x="88" y="118" width="10" height="10"/><rect x="132" y="128" width="10" height="10"/></g><g fill="#5ec8ff" opacity="0.7"><rect x="56" y="98" width="8" height="8"/><rect x="130" y="100" width="8" height="8"/><rect x="80" y="148" width="8" height="8"/></g><rect x="94" y="16" width="12" height="24" fill="#1a0e22"/><line x1="100" y1="16" x2="100" y2="6" stroke="#1a0e22" stroke-width="3"/></svg>
