<svg xmlns="http://www.w3.org/2000/svg" viewBox="0 0 200 200"><defs><linearGradient id="pg" x1="0" x2="0" y1="0" y2="1"><stop offset="0" stop-color="#c6ff3a"/><stop offset="1" stop-color="#7ed98f"/></linearGradient></defs><rect x="38" y="20" width="124" height="160" rx="16" fill="url(#pg)" stroke="#1a0e22" stroke-width="5"/><rect x="52" y="40" width="96" height="52" rx="4" fill="#1a0e22"/><text x="100" y="76" text-anchor="middle" font-family="ui-monospace, Menlo, monospace" font-size="26" fill="#c6ff3a">143</text><g fill="#1a0e22"><rect x="62" y="108" width="16" height="14" rx="3"/><rect x="84" y="108" width="16" height="14" rx="3"/><rect x="106" y="108" width="16" height="14" rx="3"/><rect x="128" y="108" width="16" height="14" rx="3"/><rect x="62" y="128" width="16" height="14" rx="3"/><rect x="84" y="128" width="16" height="14" rx="3"/><rect x="106" y="128" width="16" height="14" rx="3"/><rect x="128" y="128" width="16" height="14" rx="3"/><rect x="62" y="148" width="82" height="14" rx="3"/></g><circle cx="174" cy="40" r="6" fill="#ff3fa4" stroke="#1a0e22" stroke-width="2"/></svg>
