<svg xmlns="http://www.w3.org/2000/svg" viewBox="0 0 200 200"><g stroke="#1a0e22" stroke-width="2" fill="none" stroke-linecap="round"><path d="M20 150 Q 100 30 180 150" stroke="#ff3fa4" stroke-width="14"/><path d="M32 150 Q 100 46 168 150" stroke="#ff9d3a" stroke-width="14"/><path d="M44 150 Q 100 60 156 150" stroke="#ffe66d" stroke-width="14"/><path d="M56 150 Q 100 74 144 150" stroke="#7ed98f" stroke-width="14"/><path d="M68 150 Q 100 88 132 150" stroke="#5ec8ff" stroke-width="14"/><path d="M80 150 Q 100 100 120 150" stroke="#8b4cd6" stroke-width="14"/></g><g fill="#ffffff" stroke="#1a0e22" stroke-width="3"><ellipse cx="38" cy="150" rx="22" ry="14"/><ellipse cx="56" cy="144" rx="16" ry="12"/><ellipse cx="162" cy="150" rx="22" ry="14"/><ellipse cx="144" cy="144" rx="16" ry="12"/></g><g fill="#ffe66d" stroke="#1a0e22" stroke-width="2.5"><path d="M100 30 L108 48 L126 50 L112 62 L116 80 L100 70 L84 80 L88 62 L74 50 L92 48 Z"/></g></svg>
