<svg xmlns="http://www.w3.org/2000/svg" viewBox="0 0 200 200"><defs><linearGradient id="rs" x1="0" x2="0" y1="0" y2="1"><stop offset="0" stop-color="#ff90c2"/><stop offset="1" stop-color="#e01f88"/></linearGradient></defs><path d="M30 120 L30 70 Q 30 50, 60 50 L 130 50 Q 170 50, 170 90 L 170 130 L 30 130 Z" fill="url(#rs)" stroke="#1a0e22" stroke-width="4"/><g stroke="#1a0e22" stroke-width="2" fill="none"><path d="M52 60 L52 120"/><path d="M76 60 L76 120"/><path d="M100 60 L100 120"/><path d="M124 60 L124 120"/></g><rect x="44" y="44" width="24" height="8" fill="#5ec8ff" stroke="#1a0e22" stroke-width="2"/><rect x="78" y="44" width="24" height="8" fill="#ffe66d" stroke="#1a0e22" stroke-width="2"/><rect x="112" y="44" width="24" height="8" fill="#c6ff3a" stroke="#1a0e22" stroke-width="2"/><rect x="24" y="130" width="150" height="10" rx="4" fill="#1a0e22"/><circle cx="54" cy="164" r="22" fill="#3d4057" stroke="#1a0e22" stroke-width="4"/><circle cx="54" cy="164" r="8" fill="#d7d9e6"/><circle cx="140" cy="164" r="22" fill="#3d4057" stroke="#1a0e22" stroke-width="4"/><circle cx="140" cy="164" r="8" fill="#d7d9e6"/><circle cx="100" cy="158" r="6" fill="#1a0e22"/></svg>
